<svg id="svg" version="1.1" xmlns="http://www.w3.org/2000/svg" xmlns:xlink="http://www.w3.org/1999/xlink" width="400" height="290.90909090909093" viewBox="0, 0, 400,290.90909090909093"><g id="svgg"><path id="path0" d="M387.756 200.560 C 387.688 200.627,384.033 200.712,379.634 200.748 C 375.235 200.783,367.578 200.985,362.618 201.197 C 350.000 201.735,51.016 201.762,37.382 201.227 C 32.422 201.032,21.982 200.908,14.182 200.951 L 0.000 201.029 0.000 204.660 L 0.000 208.291 200.000 208.291 L 400.000 208.291 400.000 204.364 L 400.000 200.436 393.939 200.436 C 390.606 200.436,387.823 200.492,387.756 200.560 M-0.001 252.291 L 0.000 290.909 200.000 290.909 L 400.000 290.909 400.001 252.291 L 400.001 213.673 394.982 213.844 C 385.619 214.163,380.900 217.409,378.142 225.426 C 377.636 226.897,377.600 228.215,377.600 245.445 L 377.600 263.890 375.290 266.199 L 372.981 268.509 200.000 268.509 L 27.019 268.509 24.710 266.199 L 22.400 263.890 22.400 245.445 C 22.400 228.215,22.364 226.897,21.858 225.426 C 19.100 217.409,14.381 214.163,5.018 213.844 L -0.001 213.673 -0.001 252.291 M43.782 219.225 C 41.431 220.628,38.892 223.154,37.505 225.471 L 36.364 227.379 36.364 236.364 L 36.364 245.348 37.498 247.256 C 38.849 249.528,41.697 252.330,43.963 253.617 L 45.598 254.545 54.564 254.545 L 63.530 254.545 65.438 253.411 C 67.768 252.026,70.538 249.181,71.839 246.836 C 76.322 238.762,79.320 236.447,85.590 236.218 C 90.809 236.028,90.589 236.247,90.713 231.120 L 90.809 227.204 89.904 225.623 C 88.569 223.290,86.622 221.270,84.130 219.634 L 81.918 218.182 63.723 218.183 L 45.527 218.183 43.782 219.225 M116.509 219.225 C 114.093 220.667,111.596 223.184,110.186 225.600 C 107.644 229.953,107.193 230.604,105.479 232.381 C 102.223 235.757,100.922 236.338,96.228 236.509 C 91.009 236.699,91.229 236.480,91.105 241.608 L 91.010 245.523 91.914 247.104 C 93.249 249.437,95.197 251.458,97.688 253.093 L 99.900 254.545 109.091 254.545 L 118.281 254.545 120.493 253.093 C 123.369 251.206,124.951 249.407,127.158 245.520 C 129.380 241.604,131.172 239.561,134.030 237.685 L 136.237 236.236 137.693 237.027 C 140.831 238.733,143.519 241.748,146.175 246.545 C 147.616 249.148,150.310 251.964,152.744 253.411 L 154.652 254.545 163.618 254.545 L 172.584 254.545 174.219 253.617 C 176.509 252.316,179.337 249.521,180.728 247.182 L 181.906 245.200 181.725 241.627 C 181.463 236.452,181.527 236.509,176.016 236.509 L 172.628 236.509 170.407 235.051 C 167.535 233.166,165.746 231.128,163.521 227.208 C 161.315 223.320,159.733 221.522,156.857 219.634 L 154.645 218.182 136.450 218.183 L 118.255 218.183 116.509 219.225 M189.236 219.225 C 186.861 220.642,184.343 223.161,182.916 225.545 L 181.730 227.527 181.911 231.100 C 182.174 236.275,182.110 236.218,187.621 236.218 L 191.009 236.218 193.230 237.676 C 196.101 239.561,197.890 241.599,200.115 245.520 C 202.319 249.403,203.904 251.206,206.766 253.084 L 208.964 254.528 210.420 253.737 C 212.659 252.520,215.728 249.486,217.083 247.148 C 219.577 242.846,220.072 242.131,221.794 240.346 C 225.050 236.970,226.351 236.389,231.045 236.218 C 236.264 236.028,236.043 236.247,236.168 231.120 L 236.263 227.204 235.359 225.623 C 234.024 223.290,232.076 221.270,229.584 219.634 L 227.372 218.182 209.177 218.183 L 190.982 218.183 189.236 219.225 M261.964 219.225 C 259.548 220.667,257.051 223.184,255.640 225.600 C 253.099 229.953,252.647 230.604,250.934 232.381 C 247.677 235.757,246.376 236.338,241.683 236.509 C 236.464 236.699,236.684 236.480,236.559 241.608 L 236.464 245.523 237.369 247.104 C 238.704 249.437,240.651 251.458,243.143 253.093 L 245.355 254.545 254.545 254.545 L 263.736 254.545 265.948 253.093 C 268.823 251.206,270.406 249.407,272.612 245.520 C 274.835 241.604,276.626 239.561,279.484 237.685 L 281.691 236.236 283.147 237.027 C 286.286 238.733,288.973 241.748,291.629 246.545 C 293.070 249.148,295.765 251.964,298.199 253.411 L 300.107 254.545 309.072 254.545 L 318.038 254.545 319.674 253.617 C 321.964 252.316,324.792 249.521,326.182 247.182 L 327.361 245.200 327.180 241.627 C 326.917 236.452,326.981 236.509,321.470 236.509 L 318.082 236.509 315.861 235.051 C 312.990 233.166,311.201 231.128,308.976 227.208 C 306.769 223.320,305.187 221.522,302.312 219.634 L 300.100 218.182 281.904 218.183 L 263.709 218.183 261.964 219.225 M334.691 219.225 C 332.316 220.642,329.798 223.161,328.371 225.545 L 327.185 227.527 327.366 231.100 C 327.628 236.275,327.564 236.218,333.075 236.218 L 336.463 236.218 338.684 237.676 C 341.556 239.561,343.345 241.599,345.570 245.520 C 347.773 249.403,349.358 251.206,352.220 253.084 L 354.419 254.528 355.874 253.737 C 358.015 252.573,361.180 249.483,362.491 247.276 L 363.636 245.348 363.636 236.382 L 363.636 227.416 362.708 225.781 C 361.421 223.515,358.619 220.667,356.347 219.316 L 354.439 218.182 345.438 218.183 L 336.436 218.183 334.691 219.225 " stroke="none" fill="#f4e068" fill-rule="evenodd"></path><path id="path1" d="M25.600 15.239 C 20.364 17.430,18.160 19.401,16.059 23.773 L 14.691 26.618 14.611 35.927 L 14.531 45.236 15.962 49.455 C 17.659 54.460,20.267 61.499,20.833 62.604 C 21.152 63.225,21.236 65.327,21.233 72.640 L 21.231 81.891 19.852 83.276 C 17.977 85.158,15.125 87.563,14.327 87.934 C 13.967 88.102,13.673 88.349,13.673 88.483 C 13.673 88.617,13.487 88.727,13.261 88.727 C 13.034 88.727,12.805 88.836,12.752 88.968 C 12.698 89.101,11.829 89.690,10.821 90.277 L 8.987 91.345 4.494 91.345 C 0.693 91.345,0.000 91.413,0.000 91.782 C 0.000 92.145,0.576 92.219,3.418 92.222 C 5.298 92.225,8.538 92.305,10.618 92.401 C 14.051 92.558,18.535 92.196,22.141 91.470 C 22.558 91.386,23.851 90.407,25.012 89.295 C 27.419 86.991,27.593 86.952,30.231 88.120 C 32.463 89.108,34.909 89.891,35.764 89.891 C 36.094 89.891,36.364 90.001,36.364 90.135 C 36.364 91.210,34.766 91.200,200.000 91.200 C 365.234 91.200,363.636 91.210,363.636 90.135 C 363.636 90.001,363.906 89.891,364.236 89.891 C 365.091 89.891,367.537 89.108,369.769 88.120 C 372.407 86.952,372.581 86.991,374.988 89.295 C 376.149 90.407,377.442 91.386,377.859 91.470 C 381.465 92.196,385.949 92.558,389.382 92.401 C 391.462 92.305,394.702 92.225,396.582 92.222 C 399.424 92.219,400.000 92.145,400.000 91.782 C 400.000 91.413,399.307 91.345,395.506 91.345 L 391.013 91.345 389.179 90.277 C 388.171 89.690,387.302 89.101,387.248 88.968 C 387.195 88.836,386.966 88.727,386.739 88.727 C 386.513 88.727,386.327 88.617,386.327 88.483 C 386.327 88.349,386.033 88.102,385.673 87.934 C 384.891 87.571,382.073 85.202,380.131 83.276 L 378.735 81.891 378.914 80.000 C 379.585 72.914,380.975 65.120,382.261 61.235 C 384.629 54.080,385.509 46.897,385.398 35.636 L 385.309 26.618 383.941 23.773 C 382.073 19.885,380.115 17.927,376.227 16.059 L 373.382 14.691 200.291 14.630 L 27.200 14.569 25.600 15.239 M374.610 25.373 L 376.436 27.183 376.436 36.329 L 376.436 45.475 374.664 49.865 C 373.688 52.279,372.845 54.301,372.790 54.358 C 372.015 55.158,365.989 49.665,364.380 46.691 C 361.697 41.734,359.958 39.685,356.582 37.503 L 354.819 36.364 200.000 36.364 L 45.181 36.364 43.418 37.503 C 40.042 39.685,38.303 41.734,35.620 46.691 C 34.028 49.633,27.895 55.240,27.233 54.358 C 27.190 54.301,26.980 53.796,26.767 53.236 C 26.553 52.676,25.745 50.682,24.971 48.805 L 23.564 45.391 23.564 36.303 L 23.564 27.216 25.373 25.390 L 27.183 23.564 199.984 23.564 L 372.784 23.564 374.610 25.373 " stroke="none" fill="#9e9e9e" fill-rule="evenodd"></path><path id="path2" d="M0.000 95.082 L 0.000 98.036 4.611 98.036 C 9.457 98.036,10.914 97.774,11.208 96.848 C 11.305 96.542,11.507 96.291,11.656 96.291 C 11.805 96.291,11.927 96.101,11.927 95.869 C 11.927 95.637,12.121 95.339,12.357 95.206 C 12.756 94.983,14.010 92.752,13.835 92.576 C 13.793 92.533,10.662 92.414,6.879 92.312 L 0.000 92.127 0.000 95.082 M388.170 92.507 L 386.085 92.655 386.649 93.810 C 386.959 94.446,387.406 95.074,387.643 95.206 C 387.879 95.339,388.073 95.637,388.073 95.869 C 388.073 96.101,388.195 96.291,388.344 96.291 C 388.493 96.291,388.695 96.542,388.792 96.848 C 389.086 97.774,390.543 98.036,395.389 98.036 L 400.000 98.036 400.000 95.111 L 400.000 92.187 395.127 92.273 C 392.447 92.320,389.316 92.426,388.170 92.507 M44.574 147.529 C 43.868 147.982,43.699 148.234,43.923 148.504 C 44.153 148.782,43.251 149.451,40.163 151.293 C 35.231 154.236,34.821 154.843,33.594 161.018 C 32.382 167.116,31.177 171.539,29.832 174.821 C 29.141 176.509,28.272 178.840,27.903 180.000 C 26.892 183.173,26.182 183.012,26.182 179.609 L 26.182 177.108 24.873 177.876 L 23.564 178.643 23.564 176.748 L 23.564 174.854 22.505 175.572 C 21.013 176.585,20.945 176.529,20.945 174.269 L 20.945 172.248 19.855 173.250 C 19.255 173.801,18.684 174.252,18.587 174.253 C 18.373 174.255,18.116 171.580,17.853 166.618 C 17.626 162.329,17.479 162.141,16.601 165.018 C 16.246 166.178,15.855 167.455,15.731 167.855 C 15.583 168.331,15.439 167.279,15.312 164.800 C 14.767 154.169,14.794 154.438,14.301 154.533 C 14.025 154.586,13.651 155.243,13.375 156.156 C 12.832 157.958,12.509 157.849,12.509 155.864 C 12.509 155.083,12.309 154.058,12.065 153.586 L 11.621 152.727 5.811 152.727 L 0.000 152.727 0.000 172.825 L 0.000 192.924 6.036 192.768 C 11.720 192.622,18.156 192.208,19.782 191.885 C 22.930 191.260,27.686 191.098,30.424 191.523 C 40.825 193.140,27.004 193.018,200.000 193.018 C 373.043 193.018,359.197 193.141,369.600 191.518 C 372.065 191.134,374.606 191.092,386.255 191.244 L 400.000 191.423 400.000 181.086 L 400.000 170.749 395.418 170.829 C 390.970 170.907,390.821 170.890,390.306 170.255 C 389.607 169.391,389.378 169.428,388.945 170.473 C 388.499 171.550,388.279 171.562,387.541 170.548 L 386.960 169.752 386.451 171.024 L 385.941 172.297 385.383 171.531 C 384.632 170.499,384.366 170.563,384.027 171.855 C 383.775 172.818,383.170 178.399,383.105 180.364 C 383.090 180.814,382.804 180.289,382.352 178.980 C 381.398 176.216,381.285 176.374,380.642 181.367 C 380.042 186.019,379.900 186.198,379.356 182.982 C 378.981 180.761,378.499 179.377,378.482 180.467 C 378.477 180.764,378.255 182.199,377.988 183.655 L 377.504 186.302 376.984 183.842 C 376.698 182.489,376.446 181.185,376.424 180.945 C 376.402 180.705,376.097 181.812,375.747 183.404 L 375.110 186.300 374.610 184.500 C 374.334 183.510,374.105 182.469,374.100 182.186 C 374.085 181.310,373.635 182.349,373.225 184.208 C 372.809 186.088,372.526 186.153,372.251 184.431 C 372.146 183.771,371.405 182.200,370.572 180.872 C 367.230 175.539,365.780 171.977,364.680 166.400 C 362.941 157.583,362.892 157.096,363.605 155.699 C 364.477 153.988,364.621 154.159,359.998 151.392 C 356.780 149.466,355.849 148.779,356.081 148.499 C 356.432 148.076,354.790 146.906,353.857 146.914 C 353.117 146.920,352.467 147.361,352.683 147.710 C 352.896 148.056,350.595 148.358,347.719 148.361 C 345.804 148.363,345.533 148.440,344.626 149.236 L 343.632 150.109 336.228 150.109 L 328.823 150.109 328.046 149.236 C 327.307 148.407,327.155 148.364,324.984 148.364 C 321.806 148.364,319.935 148.080,320.110 147.623 C 320.273 147.198,319.417 146.917,317.964 146.918 C 316.817 146.918,316.056 147.284,316.319 147.710 C 316.533 148.056,314.231 148.358,311.356 148.361 C 309.440 148.363,309.170 148.440,308.263 149.236 L 307.269 150.109 299.864 150.109 L 292.460 150.109 291.682 149.236 C 290.943 148.407,290.792 148.364,288.620 148.364 C 285.442 148.364,283.572 148.080,283.747 147.623 C 283.910 147.198,283.054 146.917,281.600 146.918 C 280.453 146.918,279.693 147.284,279.955 147.710 C 280.169 148.056,277.867 148.358,274.992 148.361 C 273.076 148.363,272.806 148.440,271.899 149.236 L 270.905 150.109 263.501 150.109 L 256.096 150.109 255.319 149.236 C 254.579 148.407,254.428 148.364,252.257 148.364 C 249.078 148.364,247.208 148.080,247.383 147.623 C 247.546 147.198,246.690 146.917,245.236 146.918 C 244.089 146.918,243.329 147.284,243.592 147.710 C 243.806 148.056,241.504 148.358,238.628 148.361 C 236.713 148.363,236.442 148.440,235.535 149.236 L 234.541 150.109 227.137 150.109 L 219.733 150.109 218.955 149.236 C 218.216 148.407,218.064 148.364,215.893 148.364 C 212.715 148.364,210.844 148.080,211.019 147.623 C 211.182 147.198,210.326 146.917,208.873 146.918 C 207.726 146.918,206.965 147.284,207.228 147.710 C 207.442 148.056,205.140 148.358,202.265 148.361 C 200.349 148.363,200.079 148.440,199.172 149.236 L 198.178 150.109 190.773 150.109 L 183.369 150.109 182.591 149.236 C 181.852 148.407,181.701 148.364,179.529 148.364 C 176.351 148.364,174.481 148.080,174.656 147.623 C 174.819 147.198,173.963 146.917,172.509 146.918 C 171.362 146.918,170.602 147.284,170.864 147.710 C 171.078 148.056,168.776 148.358,165.901 148.361 C 163.985 148.363,163.715 148.440,162.808 149.236 L 161.814 150.109 154.410 150.109 L 147.005 150.109 146.228 149.236 C 145.488 148.407,145.337 148.364,143.166 148.364 C 139.988 148.364,138.117 148.080,138.292 147.623 C 138.455 147.198,137.599 146.917,136.145 146.918 C 134.998 146.918,134.238 147.284,134.501 147.710 C 134.715 148.056,132.413 148.358,129.537 148.361 C 127.622 148.363,127.352 148.440,126.444 149.236 L 125.450 150.109 118.046 150.109 L 110.642 150.109 109.864 149.236 C 109.125 148.407,108.974 148.364,106.802 148.364 C 103.624 148.364,101.753 148.080,101.928 147.623 C 102.091 147.198,101.235 146.917,99.782 146.918 C 98.635 146.918,97.874 147.284,98.137 147.710 C 98.351 148.056,96.049 148.358,93.174 148.361 C 91.258 148.363,90.988 148.440,90.081 149.236 L 89.087 150.109 81.682 150.109 L 74.278 150.109 73.500 149.236 C 72.761 148.407,72.610 148.364,70.438 148.364 C 67.260 148.364,65.390 148.080,65.565 147.623 C 65.954 146.608,46.152 146.519,44.574 147.529 " stroke="none" fill="#e46c74" fill-rule="evenodd"></path><path id="path3" d="M0.000 45.673 L 0.000 91.345 4.494 91.345 L 8.987 91.345 10.821 90.277 C 11.829 89.690,12.698 89.101,12.752 88.968 C 12.805 88.836,13.034 88.727,13.261 88.727 C 13.487 88.727,13.673 88.617,13.673 88.483 C 13.673 88.349,13.967 88.102,14.327 87.934 C 15.125 87.563,17.977 85.158,19.852 83.276 L 21.231 81.891 21.233 72.640 C 21.236 65.327,21.152 63.225,20.833 62.604 C 20.267 61.499,17.659 54.460,15.962 49.455 L 14.531 45.236 14.611 35.927 L 14.691 26.618 16.059 23.773 C 17.091 21.624,17.855 20.498,19.177 19.177 C 20.498 17.855,21.624 17.091,23.773 16.059 L 26.618 14.691 200.000 14.691 L 373.382 14.691 376.227 16.059 C 380.115 17.927,382.073 19.885,383.941 23.773 L 385.309 26.618 385.398 35.636 C 385.509 46.897,384.629 54.080,382.261 61.235 C 380.975 65.120,379.585 72.914,378.914 80.000 L 378.735 81.891 380.131 83.276 C 382.073 85.202,384.891 87.571,385.673 87.934 C 386.033 88.102,386.327 88.349,386.327 88.483 C 386.327 88.617,386.513 88.727,386.739 88.727 C 386.966 88.727,387.195 88.836,387.248 88.968 C 387.302 89.101,388.171 89.690,389.179 90.277 L 391.013 91.345 395.506 91.345 L 400.000 91.345 400.000 45.673 L 400.000 0.000 200.000 0.000 L 0.000 0.000 0.000 45.673 " stroke="none" fill="#8c8c8c" fill-rule="evenodd"></path><path id="path4" d="M25.373 25.390 L 23.564 27.216 23.564 36.303 L 23.564 45.391 24.971 48.805 C 25.745 50.682,26.553 52.676,26.767 53.236 C 26.980 53.796,27.190 54.301,27.233 54.358 C 27.895 55.240,34.028 49.633,35.620 46.691 C 38.303 41.734,40.042 39.685,43.418 37.503 L 45.181 36.364 200.000 36.364 L 354.819 36.364 356.582 37.503 C 359.958 39.685,361.697 41.734,364.380 46.691 C 365.989 49.665,372.015 55.158,372.790 54.358 C 372.845 54.301,373.688 52.279,374.664 49.865 L 376.436 45.475 376.436 36.329 L 376.436 27.183 374.610 25.373 L 372.784 23.564 199.984 23.564 L 27.183 23.564 25.373 25.390 M24.887 89.346 L 22.865 91.345 24.451 91.375 C 28.928 91.459,38.655 91.188,38.869 90.973 C 38.960 90.882,38.434 90.717,37.699 90.607 C 36.965 90.497,36.364 90.291,36.364 90.149 C 36.364 90.007,36.094 89.891,35.764 89.891 C 34.909 89.891,32.463 89.108,30.231 88.120 C 27.570 86.942,27.243 87.017,24.887 89.346 M369.745 88.124 C 367.556 89.103,365.099 89.891,364.236 89.891 C 363.906 89.891,363.636 90.007,363.636 90.149 C 363.636 90.291,363.035 90.497,362.301 90.607 C 361.566 90.717,361.040 90.882,361.131 90.973 C 361.345 91.188,371.074 91.459,375.547 91.375 L 377.130 91.345 375.002 89.309 C 372.574 86.984,372.387 86.942,369.745 88.124 " stroke="none" fill="#b4b4b4" fill-rule="evenodd"></path><path id="path5" d="M4.873 97.963 L 0.000 98.050 0.000 125.389 L 0.000 152.727 5.811 152.727 L 11.621 152.727 12.065 153.586 C 12.309 154.058,12.509 155.083,12.509 155.864 C 12.509 157.849,12.832 157.958,13.375 156.156 C 13.651 155.243,14.025 154.586,14.301 154.533 C 14.794 154.438,14.767 154.169,15.312 164.800 C 15.439 167.279,15.583 168.331,15.731 167.855 C 15.855 167.455,16.246 166.178,16.601 165.018 C 17.479 162.141,17.626 162.329,17.853 166.618 C 18.116 171.580,18.373 174.255,18.587 174.253 C 18.684 174.252,19.255 173.801,19.855 173.250 L 20.945 172.248 20.945 174.269 C 20.945 176.529,21.013 176.585,22.505 175.572 L 23.564 174.854 23.564 176.748 L 23.564 178.643 24.873 177.876 L 26.182 177.108 26.182 179.609 C 26.182 183.012,26.892 183.173,27.903 180.000 C 28.272 178.840,29.141 176.509,29.832 174.821 C 31.177 171.539,32.382 167.116,33.594 161.018 C 34.821 154.843,35.231 154.236,40.163 151.293 C 43.271 149.439,44.154 148.783,43.921 148.501 C 43.692 148.226,43.865 147.979,44.606 147.521 C 46.241 146.511,65.955 146.607,65.565 147.623 C 65.390 148.080,67.260 148.364,70.438 148.364 C 72.610 148.364,72.761 148.407,73.500 149.236 L 74.278 150.109 81.682 150.109 L 89.087 150.109 90.081 149.236 C 90.988 148.440,91.258 148.363,93.174 148.361 C 96.049 148.358,98.351 148.056,98.137 147.710 C 97.874 147.284,98.635 146.918,99.782 146.918 C 101.235 146.917,102.091 147.198,101.928 147.623 C 101.753 148.080,103.624 148.364,106.802 148.364 C 108.974 148.364,109.125 148.407,109.864 149.236 L 110.642 150.109 118.046 150.109 L 125.450 150.109 126.444 149.236 C 127.352 148.440,127.622 148.363,129.537 148.361 C 132.413 148.358,134.715 148.056,134.501 147.710 C 134.238 147.284,134.998 146.918,136.145 146.918 C 137.599 146.917,138.455 147.198,138.292 147.623 C 138.117 148.080,139.988 148.364,143.166 148.364 C 145.337 148.364,145.488 148.407,146.228 149.236 L 147.005 150.109 154.410 150.109 L 161.814 150.109 162.808 149.236 C 163.715 148.440,163.985 148.363,165.901 148.361 C 168.776 148.358,171.078 148.056,170.864 147.710 C 170.602 147.284,171.362 146.918,172.509 146.918 C 173.963 146.917,174.819 147.198,174.656 147.623 C 174.481 148.080,176.351 148.364,179.529 148.364 C 181.701 148.364,181.852 148.407,182.591 149.236 L 183.369 150.109 190.773 150.109 L 198.178 150.109 199.172 149.236 C 200.079 148.440,200.349 148.363,202.265 148.361 C 205.140 148.358,207.442 148.056,207.228 147.710 C 206.965 147.284,207.726 146.918,208.873 146.918 C 210.326 146.917,211.182 147.198,211.019 147.623 C 210.844 148.080,212.715 148.364,215.893 148.364 C 218.064 148.364,218.216 148.407,218.955 149.236 L 219.733 150.109 227.137 150.109 L 234.541 150.109 235.535 149.236 C 236.442 148.440,236.713 148.363,238.628 148.361 C 241.504 148.358,243.806 148.056,243.592 147.710 C 243.329 147.284,244.089 146.918,245.236 146.918 C 246.690 146.917,247.546 147.198,247.383 147.623 C 247.208 148.080,249.078 148.364,252.257 148.364 C 254.428 148.364,254.579 148.407,255.319 149.236 L 256.096 150.109 263.501 150.109 L 270.905 150.109 271.899 149.236 C 272.806 148.440,273.076 148.363,274.992 148.361 C 277.867 148.358,280.169 148.056,279.955 147.710 C 279.693 147.284,280.453 146.918,281.600 146.918 C 283.054 146.917,283.910 147.198,283.747 147.623 C 283.572 148.080,285.442 148.364,288.620 148.364 C 290.792 148.364,290.943 148.407,291.682 149.236 L 292.460 150.109 299.864 150.109 L 307.269 150.109 308.263 149.236 C 309.170 148.440,309.440 148.363,311.356 148.361 C 314.231 148.358,316.533 148.056,316.319 147.710 C 316.056 147.284,316.817 146.918,317.964 146.918 C 319.417 146.917,320.273 147.198,320.110 147.623 C 319.935 148.080,321.806 148.364,324.984 148.364 C 327.155 148.364,327.307 148.407,328.046 149.236 L 328.823 150.109 336.228 150.109 L 343.632 150.109 344.626 149.236 C 345.533 148.440,345.804 148.363,347.719 148.361 C 350.595 148.358,352.896 148.056,352.683 147.710 C 352.467 147.361,353.117 146.920,353.857 146.914 C 354.790 146.906,356.432 148.076,356.081 148.499 C 355.849 148.779,356.780 149.466,359.998 151.392 C 364.621 154.159,364.477 153.988,363.605 155.699 C 362.892 157.096,362.941 157.583,364.680 166.400 C 365.780 171.977,367.230 175.539,370.572 180.872 C 371.405 182.200,372.146 183.771,372.251 184.431 C 372.526 186.153,372.809 186.088,373.225 184.208 C 373.635 182.349,374.085 181.310,374.100 182.186 C 374.105 182.469,374.334 183.510,374.610 184.500 L 375.110 186.300 375.747 183.404 C 376.097 181.812,376.402 180.705,376.424 180.945 C 376.446 181.185,376.698 182.489,376.984 183.842 L 377.504 186.302 377.988 183.655 C 378.255 182.199,378.477 180.764,378.482 180.467 C 378.499 179.377,378.981 180.761,379.356 182.982 C 379.900 186.198,380.042 186.019,380.642 181.367 C 381.285 176.374,381.398 176.216,382.352 178.980 C 382.804 180.289,383.090 180.814,383.105 180.364 C 383.170 178.399,383.775 172.818,384.027 171.855 C 384.366 170.563,384.632 170.499,385.383 171.531 L 385.941 172.297 386.451 171.024 L 386.960 169.752 387.541 170.548 C 388.279 171.562,388.499 171.550,388.945 170.473 C 389.378 169.428,389.607 169.391,390.306 170.255 C 390.821 170.890,390.970 170.907,395.418 170.829 L 400.000 170.749 400.000 134.393 L 400.000 98.036 395.418 98.032 C 392.898 98.030,390.542 97.949,390.182 97.853 C 389.563 97.687,389.527 97.762,389.527 99.239 C 389.527 100.232,389.047 102.441,388.209 105.309 C 387.485 107.789,386.640 110.735,386.332 111.855 C 386.025 112.975,385.496 114.676,385.157 115.636 C 384.818 116.596,384.159 119.084,383.693 121.164 C 382.843 124.949,380.264 134.423,379.674 135.926 C 379.219 137.086,374.372 139.927,372.849 139.927 C 371.358 139.927,366.128 136.537,364.557 134.552 C 362.616 132.100,358.549 128.044,356.284 126.302 L 354.643 125.039 349.903 125.347 C 340.575 125.951,336.089 126.010,328.582 125.626 C 319.152 125.144,317.353 125.144,307.700 125.623 C 301.231 125.944,298.613 125.944,292.281 125.625 C 282.758 125.145,280.973 125.145,271.336 125.623 C 264.868 125.944,262.249 125.944,255.918 125.625 C 246.395 125.145,244.609 125.145,234.972 125.623 C 228.504 125.944,225.886 125.944,219.554 125.625 C 210.031 125.145,208.246 125.145,198.609 125.623 C 192.140 125.944,189.522 125.944,183.190 125.625 C 173.667 125.145,171.882 125.145,162.245 125.623 C 155.777 125.944,153.158 125.944,146.827 125.625 C 137.304 125.145,135.518 125.145,125.881 125.623 C 119.413 125.944,116.795 125.944,110.463 125.625 C 100.962 125.146,99.220 125.146,89.309 125.623 C 82.915 125.931,80.025 125.939,74.909 125.662 C 71.389 125.471,63.300 125.253,56.933 125.177 L 45.357 125.040 43.716 126.302 C 41.451 128.044,37.384 132.100,35.443 134.552 C 33.840 136.577,28.608 139.942,27.097 139.920 C 26.044 139.905,20.807 136.871,20.413 136.049 C 19.866 134.908,17.322 125.683,16.307 121.164 C 15.841 119.084,15.182 116.596,14.843 115.636 C 14.504 114.676,13.975 112.975,13.668 111.855 C 13.360 110.735,12.515 107.789,11.791 105.309 C 10.969 102.496,10.473 100.226,10.473 99.273 C 10.473 98.210,10.362 97.765,10.109 97.811 C 9.909 97.847,7.553 97.915,4.873 97.963 M25.309 191.299 C 24.713 191.440,19.140 192.019,15.418 192.326 C 13.738 192.464,9.582 192.657,6.182 192.754 L 0.000 192.931 0.000 194.942 L 0.000 196.954 15.055 196.922 C 24.390 196.901,31.214 197.012,33.018 197.212 C 44.056 198.439,38.538 198.400,200.013 198.400 C 332.690 198.400,354.125 198.342,358.604 197.971 C 367.032 197.272,370.348 196.973,378.473 196.178 C 383.063 195.728,388.977 195.363,393.091 195.275 L 400.000 195.128 400.000 193.273 L 400.000 191.418 398.618 191.409 C 397.858 191.404,391.695 191.324,384.922 191.232 C 374.621 191.091,372.125 191.137,369.650 191.516 C 359.019 193.143,373.104 193.018,200.145 193.018 C 27.415 193.018,40.384 193.131,30.473 191.537 C 28.061 191.149,26.283 191.067,25.309 191.299 " stroke="none" fill="#ec7376" fill-rule="evenodd"></path><path id="path6" d="M0.062 210.982 L 0.145 213.673 5.091 213.841 C 14.368 214.158,19.109 217.433,21.858 225.426 C 22.364 226.897,22.400 228.215,22.400 245.445 L 22.400 263.890 24.710 266.199 L 27.019 268.509 200.000 268.509 L 372.981 268.509 375.290 266.199 L 377.600 263.890 377.600 245.445 C 377.600 228.215,377.636 226.897,378.142 225.426 C 380.891 217.433,385.632 214.158,394.909 213.841 L 399.855 213.673 399.938 210.982 L 400.022 208.291 200.000 208.291 L -0.022 208.291 0.062 210.982 M84.130 219.634 C 86.622 221.270,88.569 223.290,89.904 225.623 L 90.809 227.204 90.713 231.120 C 90.589 236.247,90.809 236.028,85.590 236.218 C 79.320 236.447,76.322 238.762,71.839 246.836 C 70.538 249.181,67.768 252.026,65.438 253.411 L 63.530 254.545 54.564 254.545 L 45.598 254.545 43.963 253.617 C 41.697 252.330,38.849 249.528,37.498 247.256 L 36.364 245.348 36.364 236.364 L 36.364 227.379 37.505 225.471 C 38.892 223.154,41.431 220.628,43.782 219.225 L 45.527 218.183 63.723 218.183 L 81.918 218.182 84.130 219.634 M156.857 219.634 C 159.733 221.522,161.315 223.320,163.521 227.208 C 165.746 231.128,167.535 233.166,170.407 235.051 L 172.628 236.509 176.016 236.509 C 181.527 236.509,181.463 236.452,181.725 241.627 L 181.906 245.200 180.728 247.182 C 179.337 249.521,176.509 252.316,174.219 253.617 L 172.584 254.545 163.618 254.545 L 154.652 254.545 152.744 253.411 C 150.310 251.964,147.616 249.148,146.175 246.545 C 143.519 241.748,140.831 238.733,137.693 237.027 L 136.237 236.236 134.030 237.685 C 131.172 239.561,129.380 241.604,127.158 245.520 C 124.951 249.407,123.369 251.206,120.493 253.093 L 118.281 254.545 109.091 254.545 L 99.900 254.545 97.688 253.093 C 95.197 251.458,93.249 249.437,91.914 247.104 L 91.010 245.523 91.105 241.608 C 91.229 236.480,91.009 236.699,96.228 236.509 C 100.922 236.338,102.223 235.757,105.479 232.381 C 107.193 230.604,107.644 229.953,110.186 225.600 C 111.596 223.184,114.093 220.667,116.509 219.225 L 118.255 218.183 136.450 218.183 L 154.645 218.182 156.857 219.634 M229.584 219.634 C 232.076 221.270,234.024 223.290,235.359 225.623 L 236.263 227.204 236.168 231.120 C 236.043 236.247,236.264 236.028,231.045 236.218 C 226.351 236.389,225.050 236.970,221.794 240.346 C 220.072 242.131,219.577 242.846,217.083 247.148 C 215.728 249.486,212.659 252.520,210.420 253.737 L 208.964 254.528 206.766 253.084 C 203.904 251.206,202.319 249.403,200.115 245.520 C 197.890 241.599,196.101 239.561,193.230 237.676 L 191.009 236.218 187.621 236.218 C 182.110 236.218,182.174 236.275,181.911 231.100 L 181.730 227.527 182.916 225.545 C 184.343 223.161,186.861 220.642,189.236 219.225 L 190.982 218.183 209.177 218.183 L 227.372 218.182 229.584 219.634 M302.312 219.634 C 305.187 221.522,306.769 223.320,308.976 227.208 C 311.201 231.128,312.990 233.166,315.861 235.051 L 318.082 236.509 321.470 236.509 C 326.981 236.509,326.917 236.452,327.180 241.627 L 327.361 245.200 326.182 247.182 C 324.792 249.521,321.964 252.316,319.674 253.617 L 318.038 254.545 309.072 254.545 L 300.107 254.545 298.199 253.411 C 295.765 251.964,293.070 249.148,291.629 246.545 C 288.973 241.748,286.286 238.733,283.147 237.027 L 281.691 236.236 279.484 237.685 C 276.626 239.561,274.835 241.604,272.612 245.520 C 270.406 249.407,268.823 251.206,265.948 253.093 L 263.736 254.545 254.545 254.545 L 245.355 254.545 243.143 253.093 C 240.651 251.458,238.704 249.437,237.369 247.104 L 236.464 245.523 236.559 241.608 C 236.684 236.480,236.464 236.699,241.683 236.509 C 246.376 236.338,247.677 235.757,250.934 232.381 C 252.647 230.604,253.099 229.953,255.640 225.600 C 257.051 223.184,259.548 220.667,261.964 219.225 L 263.709 218.183 281.904 218.183 L 300.100 218.182 302.312 219.634 M356.347 219.316 C 358.619 220.667,361.421 223.515,362.708 225.781 L 363.636 227.416 363.636 236.382 L 363.636 245.348 362.491 247.276 C 361.180 249.483,358.015 252.573,355.874 253.737 L 354.419 254.528 352.220 253.084 C 349.358 251.206,347.773 249.403,345.570 245.520 C 343.345 241.599,341.556 239.561,338.684 237.676 L 336.463 236.218 333.075 236.218 C 327.564 236.218,327.628 236.275,327.366 231.100 L 327.185 227.527 328.371 225.545 C 329.798 223.161,332.316 220.642,334.691 219.225 L 336.436 218.183 345.438 218.183 L 354.439 218.182 356.347 219.316 " stroke="none" fill="#fcec74" fill-rule="evenodd"></path><path id="path7" d="M26.618 98.965 C 26.298 99.147,25.971 99.385,25.891 99.495 C 25.811 99.605,25.600 99.747,25.421 99.811 C 25.126 99.917,26.702 104.762,27.190 105.251 C 27.288 105.348,28.638 104.158,30.191 102.605 L 33.014 99.782 31.943 99.782 C 31.353 99.782,30.799 99.666,30.712 99.524 C 30.624 99.383,29.945 99.176,29.203 99.065 C 28.460 98.953,27.706 98.811,27.526 98.748 C 27.347 98.685,26.938 98.783,26.618 98.965 M371.002 99.014 C 370.173 99.197,369.398 99.444,369.281 99.564 C 369.163 99.684,368.598 99.782,368.026 99.782 L 366.986 99.782 369.809 102.605 C 371.362 104.158,372.712 105.348,372.810 105.251 C 373.381 104.680,374.870 99.920,374.505 99.833 C 374.287 99.781,374.109 99.639,374.109 99.516 C 374.109 99.326,372.739 98.557,372.568 98.651 C 372.536 98.669,371.831 98.832,371.002 99.014 M372.945 200.343 C 372.705 200.402,370.611 200.560,368.291 200.693 C 363.557 200.965,378.261 200.811,392.145 200.444 C 399.736 200.242,399.460 200.232,386.764 200.234 C 379.404 200.235,373.185 200.284,372.945 200.343 M19.491 200.726 C 17.597 200.825,20.436 200.897,26.036 200.893 C 32.313 200.889,34.705 200.818,32.582 200.700 C 28.613 200.478,24.090 200.487,19.491 200.726 M37.604 201.227 C 38.046 201.294,38.701 201.292,39.059 201.223 C 39.416 201.154,39.055 201.099,38.255 201.101 C 37.455 201.104,37.162 201.160,37.604 201.227 M361.095 201.227 C 361.537 201.294,362.192 201.292,362.549 201.223 C 362.907 201.154,362.545 201.099,361.745 201.101 C 360.945 201.104,360.653 201.160,361.095 201.227 " stroke="none" fill="#f4949c" fill-rule="evenodd"></path><path id="path8" d="M32.442 91.292 C 32.391 91.342,30.340 91.380,27.884 91.377 C 24.970 91.372,21.768 91.586,18.669 91.990 L 13.919 92.610 13.338 93.846 C 13.019 94.525,12.571 95.153,12.342 95.241 C 12.114 95.328,11.927 95.544,11.927 95.721 C 11.927 95.897,11.764 96.224,11.564 96.447 C 11.364 96.670,11.036 97.048,10.836 97.287 C 10.134 98.125,10.438 100.678,11.791 105.309 C 12.515 107.789,13.360 110.735,13.668 111.855 C 13.975 112.975,14.504 114.676,14.843 115.636 C 15.182 116.596,15.841 119.084,16.307 121.164 C 17.322 125.683,19.866 134.908,20.413 136.049 C 20.807 136.871,26.044 139.905,27.097 139.920 C 28.608 139.942,33.840 136.577,35.443 134.552 C 37.384 132.100,41.451 128.044,43.716 126.302 L 45.357 125.040 56.933 125.177 C 63.300 125.253,71.389 125.471,74.909 125.662 C 80.025 125.939,82.915 125.931,89.309 125.623 C 99.220 125.146,100.962 125.146,110.463 125.625 C 116.795 125.944,119.413 125.944,125.881 125.623 C 135.518 125.145,137.304 125.145,146.827 125.625 C 153.158 125.944,155.777 125.944,162.245 125.623 C 171.882 125.145,173.667 125.145,183.190 125.625 C 189.522 125.944,192.140 125.944,198.609 125.623 C 208.246 125.145,210.031 125.145,219.554 125.625 C 225.886 125.944,228.504 125.944,234.972 125.623 C 244.609 125.145,246.395 125.145,255.918 125.625 C 262.249 125.944,264.868 125.944,271.336 125.623 C 280.973 125.145,282.758 125.145,292.281 125.625 C 298.613 125.944,301.231 125.944,307.700 125.623 C 317.353 125.144,319.152 125.144,328.582 125.626 C 336.089 126.010,340.575 125.951,349.903 125.347 L 354.643 125.039 356.284 126.302 C 358.549 128.044,362.616 132.100,364.557 134.552 C 366.128 136.537,371.358 139.927,372.849 139.927 C 374.372 139.927,379.219 137.086,379.674 135.926 C 380.264 134.423,382.843 124.949,383.693 121.164 C 384.159 119.084,384.818 116.596,385.157 115.636 C 385.496 114.676,386.025 112.975,386.332 111.855 C 386.640 110.735,387.485 107.789,388.209 105.309 C 389.561 100.682,389.870 98.086,389.164 97.298 C 388.422 96.472,388.184 96.133,387.994 95.636 C 387.888 95.356,387.679 95.127,387.532 95.127 C 387.385 95.127,386.998 94.561,386.673 93.869 L 386.081 92.610 381.331 91.990 C 378.290 91.593,374.960 91.368,372.073 91.364 C 315.769 91.286,32.507 91.226,32.442 91.292 M29.203 99.065 C 29.945 99.176,30.624 99.383,30.712 99.524 C 30.799 99.666,31.353 99.782,31.943 99.782 L 33.014 99.782 30.191 102.605 C 28.638 104.158,27.288 105.348,27.190 105.251 C 26.702 104.762,25.126 99.917,25.421 99.811 C 25.600 99.747,25.811 99.605,25.891 99.495 C 26.175 99.106,27.205 98.636,27.526 98.748 C 27.706 98.811,28.460 98.953,29.203 99.065 M373.368 98.956 C 373.776 99.141,374.109 99.394,374.109 99.516 C 374.109 99.639,374.287 99.781,374.505 99.833 C 374.870 99.920,373.381 104.680,372.810 105.251 C 372.712 105.348,371.362 104.158,369.809 102.605 L 366.986 99.782 368.026 99.782 C 368.598 99.782,369.163 99.684,369.281 99.564 C 369.398 99.444,370.173 99.197,371.002 99.014 C 371.831 98.832,372.536 98.669,372.568 98.651 C 372.601 98.633,372.961 98.770,373.368 98.956 M387.491 195.394 C 386.260 195.516,372.089 196.810,367.418 197.227 C 353.268 198.489,362.083 198.432,197.673 198.322 C 52.915 198.225,42.299 198.184,37.818 197.713 C 31.010 196.996,24.206 196.786,11.273 196.894 L 0.000 196.988 0.000 199.049 L 0.000 201.110 11.273 200.847 C 24.900 200.529,33.149 200.598,37.236 201.063 C 41.465 201.544,350.702 201.783,357.818 201.311 C 375.024 200.169,374.088 200.203,389.018 200.170 L 400.000 200.145 400.000 197.673 L 400.000 195.200 394.255 195.247 C 391.095 195.272,388.051 195.339,387.491 195.394 " stroke="none" fill="#ec8c94" fill-rule="evenodd"></path></g></svg>