<svg id="svg" version="1.1" xmlns="http://www.w3.org/2000/svg" xmlns:xlink="http://www.w3.org/1999/xlink" width="400" height="400" viewBox="0, 0, 400,400"><g id="svgg"><path id="path0" d="M290.796 138.573 C 283.262 181.856,260.506 207.129,221.469 215.568 C 212.050 217.604,197.429 218.501,180.273 218.095 C 158.899 217.588,157.793 218.550,154.343 240.639 C 153.254 247.614,150.505 264.922,148.235 279.102 C 145.965 293.281,143.845 306.729,143.524 308.984 C 143.203 311.240,142.388 316.426,141.713 320.508 C 139.685 332.776,140.019 335.539,143.757 337.392 C 146.399 338.702,188.860 338.829,192.969 337.539 C 199.972 335.340,199.679 336.263,205.664 297.526 C 211.240 261.433,209.788 263.771,226.953 263.243 C 253.420 262.429,270.482 257.306,284.630 245.927 C 311.145 224.600,322.477 173.924,306.123 149.815 C 303.185 145.485,297.233 140.290,292.303 137.752 L 291.051 137.108 290.796 138.573 " stroke="none" fill="#049be3" fill-rule="evenodd"></path><path id="path1" d="M128.341 68.606 C 124.469 69.815,121.855 72.337,120.510 76.160 C 119.454 79.162,110.694 133.703,90.832 260.930 C 84.310 302.706,84.427 301.757,85.510 304.140 C 87.346 308.184,87.333 308.182,117.668 308.194 L 143.344 308.203 143.538 307.324 C 143.815 306.064,153.690 244.066,154.877 236.133 C 155.423 232.480,156.242 228.262,156.697 226.758 C 157.247 224.938,157.497 223.143,157.446 221.389 C 157.404 219.940,157.643 217.391,157.977 215.725 C 158.311 214.059,159.107 209.180,159.747 204.883 C 160.386 200.586,161.450 193.730,162.112 189.648 C 162.773 185.566,164.976 171.719,167.007 158.875 C 170.910 134.188,171.018 133.730,173.516 131.232 C 176.624 128.124,173.647 128.335,216.211 128.201 C 266.278 128.044,271.156 128.442,284.570 133.781 C 291.866 136.685,291.272 137.034,291.865 129.492 C 294.581 94.951,274.847 74.426,233.594 68.886 C 226.394 67.919,131.349 67.666,128.341 68.606 " stroke="none" fill="#042b8b" fill-rule="evenodd"></path><path id="path2" d="M178.803 128.550 C 175.341 129.365,172.736 131.484,171.393 134.574 C 170.779 135.986,167.704 154.705,160.548 200.586 C 159.274 208.750,158.050 216.377,157.827 217.534 C 157.604 218.691,157.422 220.600,157.422 221.775 L 157.422 223.912 159.738 221.768 C 163.652 218.145,162.850 218.262,185.938 217.945 C 200.668 217.743,207.414 217.500,211.133 217.037 C 254.631 211.625,280.598 187.244,289.645 143.323 C 291.250 135.527,291.215 135.938,290.284 135.938 C 289.882 135.938,287.377 135.066,284.718 134.002 C 276.761 130.816,269.317 129.269,258.398 128.532 C 251.202 128.047,180.872 128.062,178.803 128.550 " stroke="none" fill="#041c6c" fill-rule="evenodd"></path><path id="path3" d="" stroke="none" fill="#0454a1" fill-rule="evenodd"></path><path id="path4" d="" stroke="none" fill="#0460b4" fill-rule="evenodd"></path><path id="path5" d="M186.230 218.258 C 187.573 218.334,189.771 218.334,191.113 218.258 C 192.456 218.182,191.357 218.119,188.672 218.119 C 185.986 218.119,184.888 218.182,186.230 218.258 " stroke="none" fill="#046cb4" fill-rule="evenodd"></path><path id="path6" d="" stroke="none" fill="#044290" fill-rule="evenodd"></path><path id="path7" d="M255.376 128.401 C 255.862 128.495,256.565 128.491,256.938 128.393 C 257.312 128.296,256.914 128.219,256.055 128.224 C 255.195 128.228,254.890 128.308,255.376 128.401 " stroke="none" fill="#041c7c" fill-rule="evenodd"></path><path id="path8" d="" stroke="none" fill="#0444a4" fill-rule="evenodd"></path></g></svg>